<?xml version="1.0" encoding="UTF-8"?>
<!DOCTYPE svg PUBLIC "-//W3C//DTD SVG 1.1//EN" "http://www.w3.org/Graphics/SVG/1.1/DTD/svg11.dtd">
<!-- Creator: CorelDRAW 2018 (64-Bit) -->
<svg xmlns="http://www.w3.org/2000/svg" xml:space="preserve" width="2.7094mm" height="2.7094mm" version="1.1" style="shape-rendering:geometricPrecision; text-rendering:geometricPrecision; image-rendering:optimizeQuality; fill-rule:evenodd; clip-rule:evenodd"
viewBox="0 0 19.48 19.48"
 xmlns:xlink="http://www.w3.org/1999/xlink">
 <defs>
  <style type="text/css">
   <![CDATA[
    .fil1 {fill:none}
    .fil0 {fill:#E93C05}
   ]]>
  </style>
 </defs>
 <g id="Layer_x0020_1">
  <metadata id="CorelCorpID_0Corel-Layer"/>
  <g id="_2693204505792">
   <g>
    <path class="fil0" d="M4.74 10.61l0.04 -4.78 14.68 -0 -0 -2.82c-0.11,-1.09 -0.66,-1.96 -2.03,-1.96l-15.34 0c-1.26,0 -2.08,0.77 -2.08,1.87l-0.01 7c-0,1.08 0.74,2.02 2.21,2.02l7.45 0.01 -0.01 -1.33 -4.91 -0z"/>
    <path class="fil0" d="M14.74 8.87l-0.04 4.78 -14.68 0 0 2.82c0.11,1.09 0.66,1.96 2.03,1.96l15.34 -0c1.26,0 2.08,-0.76 2.08,-1.87l0.01 -7c0,-1.08 -0.74,-2.02 -2.21,-2.02l-7.45 -0.01 0.01 1.33 4.91 0z"/>
   </g>
   <rect class="fil1" x="0" y="0" width="19.48" height="19.48"/>
  </g>
 </g>
</svg>
