<?xml version="1.0" encoding="UTF-8"?>
<!DOCTYPE svg PUBLIC "-//W3C//DTD SVG 1.1//EN" "http://www.w3.org/Graphics/SVG/1.1/DTD/svg11.dtd">
<!-- Creator: CorelDRAW 2018 (64-Bit) -->
<svg xmlns="http://www.w3.org/2000/svg" xml:space="preserve" width="4.33333in" height="1.38667in" version="1.1" style="shape-rendering:geometricPrecision; text-rendering:geometricPrecision; image-rendering:optimizeQuality; fill-rule:evenodd; clip-rule:evenodd"
viewBox="0 0 321.4 102.85"
 xmlns:xlink="http://www.w3.org/1999/xlink">
 <defs>
  <style type="text/css">
   <![CDATA[
    .fil0 {fill:none}
    .fil2 {fill:#003399}
    .fil1 {fill:#003399;fill-rule:nonzero}
   ]]>
  </style>
 </defs>
 <g id="Layer_x0020_1">
  <metadata id="CorelCorpID_0Corel-Layer"/>
  <g id="_1670002276224">
   <rect class="fil0" x="-0" y="0" width="321.4" height="102.85"/>
   <g>
    <path class="fil1" d="M55.58 0c14.43,0.05 29.33,3.47 44.65,10.3l0.72 0.31 0.26 0.72 0 0.05c1.24,3.78 2.33,7.55 3.21,11.33 0.88,3.78 1.6,7.55 2.12,11.33 0.72,4.97 1.14,9.88 1.24,14.85l0 5.79c-0.31,12.52 -2.48,25.04 -6.57,37.56l-0.26 0.72 -0.72 0.31c-14.49,6.42 -29.02,9.57 -43.51,9.57 -0.36,0 -0.72,0 -1.14,0l0 -3.52c0.41,0 0.78,0 1.14,0 13.76,0 27.57,-2.95 41.39,-8.95 6,-18.62 7.66,-37.25 4.97,-55.87 -0.52,-3.62 -1.24,-7.35 -2.12,-11.02 -0.78,-3.41 -1.76,-6.88 -2.85,-10.3 -14.64,-6.42 -28.82,-9.62 -42.53,-9.67l0 -3.52zm-42.47 10.35l0 0c13.55,-6.93 27.63,-10.35 42.16,-10.35 0.1,0 0.21,0 0.31,0l0 3.52c-0.1,0 -0.21,0 -0.31,0 -13.81,0 -27.11,3.21 -39.99,9.67 -5.23,12.42 -8.17,25.04 -8.33,37.92 -0.21,12.78 2.43,25.87 8.28,39.22 13.45,5.85 26.9,8.85 40.35,9l0 3.52c-14.12,-0.16 -28.25,-3.31 -42.37,-9.57l-0.93 -0.88c-6,-13.45 -8.79,-26.7 -8.85,-39.68l0 -0.93c0,-0.26 0,-0.47 0,-0.72 0.16,-13.5 3.31,-26.8 8.85,-39.84l0.83 -0.88z"/>
    <path class="fil2" d="M56.51 80.14c-0.72,-9.88 -0.26,-20.18 -3.21,-29.59 -2.74,-8.79 -13.14,-13.81 -13.35,-23.49 -0.21,-7.55 5.54,-16.3 16.3,-16.3 10.09,-0.05 16.35,7.29 17.07,15.47 0.88,9.47 -10.61,15.83 -13.61,24.83 -3.1,9.21 -2.22,19.4 -3.21,29.07z"/>
    <path class="fil2" d="M60.49 77.76c-0.41,-8.59 -0.41,-16.81 1.97,-24.11 2.64,-8.28 8.12,-15.26 16.5,-17.54 5.74,-1.55 14.18,5.17 12.83,12.05 -1.14,5.54 -6.67,12.05 -15.57,12.78 -4.14,0.36 -5.9,3.67 -8.48,5.59 11.59,-1.14 19.09,-5.69 24.32,-10.45 0.78,4.04 1.29,10.81 -1.86,13.14 -6.21,4.4 -11.95,0.83 -19.25,2.9 -4.09,1.19 -6.62,3.78 -10.45,5.64z"/>
    <path class="fil2" d="M52.58 77.76c0.47,-8.59 0.41,-16.81 -1.91,-24.11 -2.64,-8.28 -8.12,-15.26 -16.5,-17.54 -5.74,-1.55 -14.23,5.17 -12.83,12.05 1.14,5.54 6.67,12.05 15.57,12.78 4.09,0.36 5.9,3.67 8.48,5.59 -11.64,-1.14 -19.09,-5.69 -24.32,-10.45 -0.78,4.04 -1.29,10.81 1.86,13.14 6.21,4.4 11.95,0.83 19.25,2.9 4.09,1.19 6.57,3.78 10.4,5.64z"/>
    <path class="fil2" d="M80.15 90.54l0 -1.4 1.03 -0.26 -1.03 -1.55 0 -2.59 4.66 6.47 -1.66 0.41 -1.14 -1.6 -1.86 0.52zm0 -5.79l0 0 0 2.59 -0.72 -1.03 -0.31 3.1 1.03 -0.26 0 1.4 -1.19 0.26 -0.21 1.91 -1.66 0.41 1.09 -8.43 1.66 -0.41 0.31 0.47zm-15.42 10.3l0 0 0 -1.34 0.36 0c0.57,-0.05 0.93,-0.1 1.09,-0.16 0.21,-0.05 0.41,-0.21 0.52,-0.36 0.16,-0.21 0.21,-0.41 0.21,-0.67 -0.05,-0.26 -0.1,-0.47 -0.26,-0.62 -0.1,-0.16 -0.31,-0.26 -0.52,-0.31 -0.21,-0.05 -0.67,-0.05 -1.4,0l0 -1.35c0.41,0 0.67,-0.05 0.78,-0.05 0.26,-0.05 0.47,-0.21 0.62,-0.36 0.16,-0.16 0.21,-0.36 0.16,-0.62 0,-0.26 -0.1,-0.47 -0.26,-0.57 -0.1,-0.16 -0.31,-0.26 -0.62,-0.26 -0.1,0 -0.31,0 -0.67,0.05l0 -1.34c0.57,-0.05 0.98,-0.05 1.24,0 0.31,0 0.62,0.1 0.88,0.26 0.26,0.1 0.47,0.31 0.67,0.57 0.16,0.26 0.26,0.57 0.31,0.93 0.05,0.36 -0.05,0.72 -0.21,1.03 -0.16,0.31 -0.41,0.57 -0.78,0.78 0.52,0.1 0.93,0.31 1.19,0.62 0.31,0.31 0.47,0.67 0.52,1.14 0,0.36 -0.05,0.72 -0.16,1.09 -0.16,0.36 -0.36,0.62 -0.62,0.88 -0.31,0.21 -0.62,0.36 -1.03,0.47 -0.26,0.05 -0.93,0.1 -1.91,0.21l-0.1 0zm9.78 -4.35l0 0 1.6 0.21c-0.1,0.88 -0.36,1.6 -0.83,2.12 -0.47,0.47 -1.14,0.83 -1.97,0.98 -1.03,0.16 -1.97,-0.05 -2.74,-0.62 -0.83,-0.62 -1.29,-1.5 -1.55,-2.74 -0.21,-1.29 -0.05,-2.38 0.52,-3.21 0.52,-0.83 1.34,-1.34 2.43,-1.55 0.98,-0.16 1.76,0 2.48,0.47 0.41,0.26 0.78,0.67 1.03,1.29l-1.5 0.62c-0.16,-0.36 -0.41,-0.67 -0.72,-0.83 -0.36,-0.21 -0.72,-0.26 -1.14,-0.21 -0.57,0.1 -0.98,0.41 -1.29,0.88 -0.31,0.52 -0.36,1.19 -0.21,2.12 0.21,0.98 0.52,1.66 0.93,2.02 0.41,0.36 0.93,0.52 1.5,0.41 0.41,-0.1 0.72,-0.31 0.98,-0.62 0.26,-0.31 0.41,-0.78 0.47,-1.34zm-9.78 -3.62l0 0 0 1.34c-0.21,0 -0.41,0.05 -0.67,0.05l-0.93 0.1 0.16 1.81 1.09 -0.1c0.1,0 0.26,0 0.36,-0.05l0 1.35c0,0 0,0 -0.05,0l-1.24 0.1 0.16 2.12 1.14 -0.1 0 1.34 -2.59 0.26 -0.72 -7.92 3.16 -0.26c0.05,-0.05 0.1,-0.05 0.16,-0.05zm-9.98 5.23l0 0 0 -1.35c0.36,0 0.57,-0.05 0.72,-0.1 0.21,-0.05 0.36,-0.21 0.52,-0.36 0.1,-0.21 0.16,-0.41 0.16,-0.62 0.05,-0.31 -0.05,-0.52 -0.21,-0.72 -0.16,-0.21 -0.36,-0.31 -0.62,-0.36 -0.16,0 -0.31,-0.05 -0.57,-0.05l0 -1.34c0.78,0 1.24,0.05 1.5,0.16 0.47,0.1 0.83,0.36 1.14,0.78 0.31,0.41 0.47,0.93 0.41,1.55 0,0.47 -0.1,0.88 -0.26,1.24 -0.21,0.31 -0.41,0.57 -0.67,0.78 -0.31,0.16 -0.57,0.26 -0.88,0.36 -0.31,0.05 -0.72,0.05 -1.24,0.05zm0 -4.91l0 0 0 1.34c-0.16,0 -0.36,0 -0.62,0l-0.78 -0.05 0 2.28 0.83 0c0.21,0 0.41,0 0.57,0l0 1.35c-0.1,0 -0.26,0 -0.41,0l-1.03 0 -0.05 3 -1.6 -0.05 0.16 -7.92 2.53 0.05c0.16,0 0.31,0 0.41,0zm-14.95 4.14l0 0 0 -2.43c0.47,0.1 0.78,0.1 0.93,0.1 0.21,-0.05 0.36,-0.1 0.52,-0.26 0.1,-0.16 0.21,-0.31 0.26,-0.57 0.05,-0.26 0,-0.47 -0.1,-0.67 -0.1,-0.21 -0.31,-0.31 -0.57,-0.41 -0.1,-0.05 -0.47,-0.1 -1.03,-0.21l0 -1.35 0.67 0.1c0.83,0.16 1.4,0.31 1.76,0.52 0.36,0.21 0.62,0.52 0.78,0.93 0.16,0.36 0.21,0.83 0.1,1.29 -0.1,0.57 -0.36,1.03 -0.78,1.34 -0.36,0.31 -0.93,0.47 -1.66,0.47 0.31,0.26 0.57,0.52 0.72,0.78 0.21,0.31 0.41,0.78 0.67,1.45l0.67 1.71 -1.86 -0.36 -0.83 -1.91c-0.1,-0.16 -0.16,-0.36 -0.26,-0.52zm4.55 -4.91l0 0 1.55 0.16 -0.36 4.29c-0.05,0.67 -0.05,1.14 -0.05,1.29 0.05,0.36 0.21,0.62 0.41,0.83 0.26,0.26 0.57,0.36 1.03,0.41 0.47,0.05 0.83,-0.05 1.03,-0.21 0.26,-0.16 0.41,-0.36 0.52,-0.62 0.05,-0.26 0.1,-0.72 0.16,-1.35l0.36 -4.4 1.6 0.16 -0.36 4.14c-0.05,0.98 -0.16,1.66 -0.31,2.02 -0.1,0.36 -0.31,0.72 -0.52,0.93 -0.26,0.26 -0.62,0.47 -1.03,0.57 -0.36,0.16 -0.88,0.16 -1.5,0.1 -0.78,-0.05 -1.34,-0.21 -1.71,-0.41 -0.36,-0.21 -0.67,-0.47 -0.88,-0.72 -0.21,-0.31 -0.31,-0.62 -0.36,-0.93 -0.05,-0.47 -0.05,-1.14 0,-2.02l0.41 -4.24zm-12.57 2.33l0 0 0.31 -1.29 3.36 0.88 -0.83 3.05c-0.41,0.26 -0.93,0.41 -1.66,0.47 -0.67,0.05 -1.29,0 -1.91,-0.16 -0.83,-0.21 -1.5,-0.57 -1.97,-1.03 -0.52,-0.52 -0.83,-1.14 -0.98,-1.81 -0.1,-0.72 -0.1,-1.45 0.1,-2.17 0.21,-0.78 0.57,-1.45 1.09,-2.02 0.47,-0.52 1.09,-0.83 1.81,-0.98 0.57,-0.16 1.24,-0.1 1.97,0.1 0.93,0.26 1.66,0.62 2.07,1.19 0.41,0.52 0.62,1.19 0.57,1.91l-1.6 -0.1c0,-0.41 -0.1,-0.78 -0.36,-1.09 -0.26,-0.26 -0.57,-0.52 -1.03,-0.62 -0.67,-0.16 -1.24,-0.1 -1.76,0.21 -0.52,0.31 -0.88,0.93 -1.14,1.76 -0.26,0.93 -0.21,1.66 0.05,2.22 0.31,0.57 0.78,0.93 1.4,1.09 0.36,0.1 0.67,0.1 1.03,0.1 0.36,-0.05 0.67,-0.16 0.98,-0.26l0.26 -0.98 -1.76 -0.47zm8.02 -3.21l0 0 -2.69 -0.47 -1.34 7.81 1.55 0.26 0.57 -3.26 0.36 0.05c0.36,0.05 0.62,0.16 0.78,0.21 0.16,0.1 0.26,0.26 0.41,0.41 0.05,0.16 0.21,0.41 0.36,0.78l0 -2.43c-0.16,0 -0.31,-0.05 -0.52,-0.05l-1.14 -0.21 0.31 -1.97 1.24 0.21c0.05,0 0.1,0 0.1,0l0 -1.35z"/>
    <path class="fil2" d="M286.37 76.05l0 -14.59 6.42 0 0 -25.66 -6.42 12.83 0 -32.02 25.19 0 6.42 73.77 -25.2 0 0 -14.33 -6.42 0zm0 -59.44l0 0 0 32.02 -6.42 12.83 6.42 0 0 14.59 -12.11 0 -4.97 13.55 -15.62 0 0 -16.87 17.43 -37.61 -3.57 0 9.93 -18.52 8.9 0zm-32.7 24.57l0 0 7.81 -18.52 -7.81 -4.35 0 22.87zm-62.13 -7.09l0 0c0.36,-2.12 0.36,-4.19 0,-6.16l0 6.16zm62.13 -15.78l0 0 0 22.87 -1.03 2.48c-15.42,-11.02 -38.18,-0.98 -39.47,10.66 -1.29,12.16 7.97,21.99 31.61,14.64l-8.12 21.73c-31.2,3.47 -43.3,-8.9 -45.11,-23.33l0 -8.17c0.47,-3.78 1.45,-7.45 2.79,-10.86 15.37,-38.18 40.3,-29.59 49.77,-30.32l1.4 -4.24 8.17 4.55zm0 54.43l0 0 -7.81 16.87 7.81 0 0 -16.87zm-90.17 16.4l0 0c16.71,-3.31 33.11,-23.38 16.66,-39.37 6.42,-3.41 10.4,-9.57 11.38,-15.68l0 -6.16c-1.14,-6.36 -6.05,-11.54 -15.31,-11.69l-12.73 -0.26 0 14.18 5.28 0c5.64,0 4.91,14.59 -2.12,14.59l-3.16 0 0 11.17c7.61,1.45 4.91,12 0,15.26l0 17.95zm28.04 -29.95l0 0 0 8.17c-0.31,-2.69 -0.31,-5.43 0,-8.17zm-50.08 -43.66l0 0 -10.3 19.97 4.6 -0.36 -12.42 54.48 35.54 0c1.55,0 3.05,-0.16 4.6,-0.47l0 -17.95c-0.88,0.62 -1.86,0.98 -2.85,0.98l-12.78 0 4.24 -16.4 9.57 0c0.67,0 1.29,0.05 1.81,0.16l0 -11.17 -8.9 0 3.57 -14.59 5.33 0 0 -14.18 -22.04 -0.47z"/>
   </g>
  </g>
 </g>
</svg>
