<?xml version="1.0" encoding="UTF-8"?>
<!DOCTYPE svg PUBLIC "-//W3C//DTD SVG 1.1//EN" "http://www.w3.org/Graphics/SVG/1.1/DTD/svg11.dtd">
<!-- Creator: CorelDRAW 2018 (64-Bit) -->
<svg xmlns="http://www.w3.org/2000/svg" xml:space="preserve" width="4.33334in" height="1.38667in" version="1.1" style="shape-rendering:geometricPrecision; text-rendering:geometricPrecision; image-rendering:optimizeQuality; fill-rule:evenodd; clip-rule:evenodd"
viewBox="0 0 390.12 124.84"
 xmlns:xlink="http://www.w3.org/1999/xlink">
 <defs>
  <style type="text/css">
   <![CDATA[
    .fil3 {fill:none}
    .fil0 {fill:#FEFEFE;fill-rule:nonzero}
    .fil1 {fill:#F16136;fill-rule:nonzero}
    .fil2 {fill:#006E89;fill-rule:nonzero}
   ]]>
  </style>
 </defs>
 <g id="Layer_x0020_1">
  <metadata id="CorelCorpID_0Corel-Layer"/>
  <g id="_1669991452864">
   <g>
    <polygon class="fil0" points="107.34,112.87 0,112.87 0,5.93 107.34,5.93 "/>
    <path class="fil1" d="M43 78.1l11.38 -9.2c-1.89,-2.38 -3.69,-4.83 -5.4,-7.31 -13.21,-19.07 -21,-38.5 -15.36,-55.67l-33.62 0 0 18.54 43 53.64z"/>
    <path class="fil1" d="M60.99 50.38c0.71,-6.05 2.53,-17.48 13.64,-25.94 9.62,-7.33 21.64,-8.74 32.31,-4.22l0 -14.29 -59.34 0c-3.92,17.41 6.38,36.53 13.39,44.45z"/>
    <path class="fil1" d="M75.37 32.94l-0.04 0.03c-11.16,9.06 -8.42,23.3 1.96,36.07 8.02,9.88 18.73,16.79 29.65,11.55l0 -42.08c-9.8,-10.04 -21.57,-13.7 -31.57,-5.57z"/>
    <polygon class="fil1" points="0,46.41 0,112.87 0.01,112.87 32.37,86.7 "/>
    <path class="fil1" d="M58.84 74.19c-3.16,2.61 -7.09,5.83 -11.47,9.36l4.2 5.24c6.09,7.61 14.97,20.75 26,17.2l0.41 0.5 -7.83 6.39 36.79 0 0 -25.31c-18.93,10.3 -35.2,0.93 -48.1,-13.37z"/>
    <path class="fil1" d="M41.08 97.56l-4.35 -5.42c-8.91,7.16 -18.32,14.68 -25.93,20.73l41.18 0c-2.68,-5.68 -7.54,-11.12 -10.91,-15.31z"/>
    <path class="fil2" d="M196.05 50.61c9.84,-1.72 16.24,-10.24 16.24,-21.13 0,-14.45 -12.51,-23.56 -33.96,-23.56l-42.42 0 0 0.49c8.66,4.76 8.47,12.43 8.47,19.74l0 66.32c0,7.47 0.19,15.22 -8.47,19.89l0 0.49 20.43 0c19.97,0 35.25,0.34 46.69,-5.03 12.13,-5.7 19.51,-15.93 19.51,-28.44 0,-15.92 -11.87,-25.67 -26.49,-28.76zm-35.03 -34.83l13.41 0.23c9.96,0 20.15,4.87 20.15,16.08 0,13.32 -9,16.9 -21.85,16.9l-11.71 0.02 0 -0.02 0 -33.21zm12.94 86.06l-12.94 0.02 0 -42.15 0 -0.6 13.9 -0.05c16.2,0 29.57,6.02 29.57,21.78 0,15.44 -14.04,21.01 -30.54,21.01z"/>
    <path class="fil2" d="M255.05 92.49c0,9.1 -0.16,15.61 8.45,20.64l0 0.49 -28.76 0 0 -0.49c8.62,-5.03 8.47,-11.53 8.47,-20.64l0 -64.97c0,-9.1 0.15,-16.23 -8.45,-21.11l0 -0.49 23.87 0 0 0.16c0.65,1.95 1.69,3.02 2.44,4.06 0.75,1.04 2.27,3.25 2.27,3.25l54.75 73.81 0 -60.32c0,-9.1 0.17,-15.6 -8.45,-20.48l0 -0.49 28.6 0 0 0.49c-8.45,4.87 -8.45,11.38 -8.45,20.48l0 92.02c-5.2,-2.07 -19.78,-14.18 -30.15,-28.13 -18.59,-25.01 -44.59,-59.75 -44.59,-59.75l0 61.45z"/>
    <path class="fil2" d="M364.89 25.3c0,-7.47 -0.11,-14.12 -8.42,-18.89l0 -0.49 33.65 0 0 0.49c-8.33,4.62 -8.4,11.58 -8.4,18.89l0 68.36c0,7.3 -0.19,14.67 8.4,19.45l0 0.48 -33.65 0 0 -0.48c8.65,-4.83 8.42,-12.1 8.42,-19.4l0 -68.41z"/>
   </g>
   <rect class="fil3" x="0" y="0" width="390.12" height="124.84"/>
  </g>
 </g>
</svg>
