<?xml version="1.0" encoding="UTF-8"?>
<!DOCTYPE svg PUBLIC "-//W3C//DTD SVG 1.1//EN" "http://www.w3.org/Graphics/SVG/1.1/DTD/svg11.dtd">
<!-- Creator: CorelDRAW 2018 (64-Bit) -->
<svg xmlns="http://www.w3.org/2000/svg" xml:space="preserve" width="4.33334in" height="1.38666in" version="1.1" style="shape-rendering:geometricPrecision; text-rendering:geometricPrecision; image-rendering:optimizeQuality; fill-rule:evenodd; clip-rule:evenodd"
viewBox="0 0 728.29 233.05"
 xmlns:xlink="http://www.w3.org/1999/xlink">
 <defs>
  <style type="text/css">
   <![CDATA[
    .fil0 {fill:none}
    .fil1 {fill:#108DE8}
    .fil3 {fill:#79BBE7}
    .fil2 {fill:white}
   ]]>
  </style>
 </defs>
 <g id="Layer_x0020_1">
  <metadata id="CorelCorpID_0Corel-Layer"/>
  <g id="_1669994536448">
   <rect class="fil0" x="-0" y="-0" width="728.29" height="233.05"/>
   <g>
    <path class="fil1" d="M96.03 20.17c-35.11,3.03 -63.57,19.96 -80.85,46.1 -11.23,16.98 -16.51,37.11 -14.88,57.76 3.98,50.52 51.65,93.29 112.66,88.89 54.74,-3.95 99.91,-48.8 95.28,-103.97 -1.69,-20.2 -9.4,-36.84 -21.76,-51.87 -5.59,-6.81 -6.7,-6.92 -12.54,-12.49 -7.24,-6.91 -22.56,-14.84 -32.34,-18.35 -13.11,-4.71 -29.8,-7.42 -45.57,-6.06z"/>
    <path class="fil2" d="M43.89 88.34c-1.33,3.5 -0.54,42.43 -0.54,49.65 0,7.81 -1.69,10.25 11.72,14.43 35.53,11.07 70.7,-26.45 106.03,-7.89 1.64,0.86 3.63,2.62 4.1,-0.23l0.01 -50.08c0,-5.39 0.53,-7.07 -3.39,-9.56 -31.61,-20.06 -65.84,14.25 -97.91,10.4 -11.87,-1.42 -16.79,-6.94 -20.02,-6.73l0 0z"/>
    <path class="fil1" d="M287.95 165.54c13.85,0.9 29.98,-8.88 35.66,-14.48 19.74,-19.46 20.22,-47.62 0.34,-68 -7.4,-7.59 -24.73,-15.97 -35.78,-14.8l-39.91 0.03 -0.01 97.13 39.69 0.12zm-17.27 -21.05c2.94,0.47 15.01,0.29 18.33,0.01 27.27,-2.27 36.9,-36.22 13.97,-50.45 -3.8,-2.36 -8.04,-4.24 -13.59,-4.81 -3.04,-0.31 -16.03,-0.5 -18.73,-0.06l0.01 55.3 0 0z"/>
    <path class="fil1" d="M637.53 165.72l22.7 -0.01 0.02 -20.93 45.05 0.01 0.13 20.93 22.69 0c0.02,-11.63 0.01,-23.17 0.01,-34.71 0,-10.39 0.96,-23.41 -1.86,-32.84 -4.76,-15.96 -21.42,-30.11 -43.35,-30.19 -22.16,-0.08 -38.25,14.03 -43.39,29.76 -3.04,9.31 -2.03,22.65 -2.03,32.9 0,11.68 -0.13,23.42 0.02,35.08l0 0zm22.72 -42.01l45.16 0.02c0.11,-8.98 1.17,-17.71 -3.26,-24.59 -3.17,-4.92 -9.84,-10.07 -19.22,-10.11 -9.57,-0.04 -15.95,4.91 -19.36,10.01 -4.47,6.69 -3.46,15.89 -3.32,24.67l0 0z"/>
    <path class="fil1" d="M377.85 165.7l22.62 0.02c0.01,-4.37 -0.61,-17.76 0.22,-20.94l44.88 0.01 0.16 20.92 22.65 0.02c-0.12,-11.6 -0.01,-23.18 -0.01,-34.72 0,-9.9 1.01,-24.07 -1.84,-32.85 -12.97,-39.96 -73.32,-40.24 -86.72,-0.4 -3.03,9.02 -2,22.83 -2,32.88 0,11.6 -0.29,23.51 0.03,35.06zm22.64 -41.98l45.22 0.02c0.09,-8.85 1.16,-17.74 -3.28,-24.61 -8.12,-12.57 -28.76,-14.37 -38.58,-0.06 -4.49,6.54 -3.51,16.03 -3.36,24.65l0 0z"/>
    <path class="fil1" d="M508.21 106.2l-0.31 14.51c0,12.16 -0.66,34.86 0.05,44.73l22.19 0.01c0.52,-6.92 -0.8,-56.29 0.6,-57.86 0.01,-9.59 10.99,-18.51 22.09,-18.55 6.82,-0.02 11.8,2.51 15.42,5.51 2.83,2.34 7.15,7.68 7.07,13.09 1.04,0.53 0.22,52.03 0.55,57.79l22.21 0.01 -0.18 -58.95c0.55,-4.62 -2.5,-11.76 -4.46,-15.38 -16.44,-30.44 -63.63,-30.84 -80.54,-0.52 -1.98,3.55 -5.16,10.89 -4.69,15.61l0 0z"/>
    <path class="fil3" d="M287.95 165.54l-39.69 -0.12 0.01 -97.13 39.91 -0.03c-0.73,-0.93 -17.38,-0.37 -19.71,-0.37 -5.81,0 -14.97,-0.5 -20.37,0.08 -0.51,1.55 -0.72,95.27 -0.04,97.79 3.67,0.43 29.29,0.1 37.38,0.12l2.23 -0.21c0.07,-0.02 0.19,-0.08 0.28,-0.12z"/>
    <path class="fil3" d="M575.32 107.64c0.24,7.95 -0.47,55.29 0.34,58.13l22.62 0.09c0.59,-2.28 0.23,-39.19 0.23,-44.78 0,-2.67 0.79,-13.17 -0.61,-14.58l0.18 58.95 -22.21 -0.01c-0.33,-5.77 0.49,-57.26 -0.54,-57.79l-0 0z"/>
    <path class="fil3" d="M530.74 107.59c-1.41,1.57 -0.09,50.94 -0.6,57.86l-22.19 -0.01c-0.71,-9.87 -0.05,-32.56 -0.05,-44.73l0.31 -14.51c-1.26,0.5 -0.7,26.36 -0.7,29.59 0,4.7 -0.61,27.3 0.27,29.99l22.6 0.08 0.35 -58.27 0 0z"/>
   </g>
  </g>
 </g>
</svg>
