<?xml version="1.0" encoding="UTF-8"?>
<!DOCTYPE svg PUBLIC "-//W3C//DTD SVG 1.1//EN" "http://www.w3.org/Graphics/SVG/1.1/DTD/svg11.dtd">
<!-- Creator: CorelDRAW 2018 (64-Bit) -->
<svg xmlns="http://www.w3.org/2000/svg" xml:space="preserve" width="4.33333in" height="1.38666in" version="1.1" style="shape-rendering:geometricPrecision; text-rendering:geometricPrecision; image-rendering:optimizeQuality; fill-rule:evenodd; clip-rule:evenodd"
viewBox="0 0 492.97 157.75"
 xmlns:xlink="http://www.w3.org/1999/xlink">
 <defs>
  <style type="text/css">
   <![CDATA[
    .fil3 {fill:none}
    .fil1 {fill:white}
    .fil2 {fill:black;fill-rule:nonzero}
    .fil0 {fill:#00AED6;fill-rule:nonzero}
   ]]>
  </style>
 </defs>
 <g id="Layer_x0020_1">
  <metadata id="CorelCorpID_0Corel-Layer"/>
  <g id="_1669995907552">
   <g>
    <path class="fil0" d="M53.79 26.96c29.7,0 53.78,23.24 53.78,51.9 0,28.66 -24.08,51.9 -53.78,51.9 -29.71,0 -53.79,-23.24 -53.79,-51.9 0,-28.66 24.08,-51.9 53.79,-51.9z"/>
    <path class="fil1" d="M85.16 77.26c-0.41,-6.61 -6.24,-11.67 -13.09,-11.38l-33.97 0c-1.24,0 -2.24,-0.97 -2.24,-2.17 0,-1.19 1,-2.16 2.24,-2.16l34.42 0c-0.2,-4.48 -3.37,-8.32 -7.84,-9.51 -10.04,-1.73 -20.31,-1.73 -30.34,0 -5.7,1.35 -9.97,5.93 -10.75,11.55 -1.57,10.18 -1.57,20.53 0,30.71 1.2,5.95 6.09,10.54 12.28,11.55 12.44,1.51 25.03,1.51 37.47,0 5.55,-1.08 9.74,-5.48 10.4,-10.9 1.14,-5.83 1.62,-11.76 1.44,-17.69zm-11.21 7.27l0 0 0 1.9c0,1.19 -1,2.16 -2.24,2.16 -1.24,0 -2.24,-0.97 -2.24,-2.16l0 -1.9c-0.72,-0.61 -1.13,-1.5 -1.12,-2.42 0,-1.79 1.5,-3.24 3.36,-3.24 1.86,0 3.36,1.45 3.36,3.24 -0.01,0.92 -0.41,1.8 -1.12,2.42l0 0z"/>
    <path class="fil2" d="M260.76 73.02c0.07,-9.1 -7.51,-16.54 -16.94,-16.61 -9.43,-0.07 -17.13,7.25 -17.21,16.35 -0.07,9.1 7.51,16.54 16.94,16.61 0.09,0 0.18,0 0.26,0 8.95,0.47 16.59,-6.16 17.07,-14.8 0.03,-0.51 0.03,-1.04 0.01,-1.55l-0.14 0 0 0zm-50.73 0l0 0c0,-17.3 14.16,-30.49 33.79,-30.49 19.63,0 33.8,13.27 33.8,30.49 0,17.21 -14.03,30.53 -33.8,30.53 -19.77,0 -33.79,-13.28 -33.79,-30.53z"/>
    <path class="fil2" d="M183.13 76.18c0,7.14 -7.53,12.97 -17.07,12.97 -8.77,0.86 -16.6,-5.31 -17.48,-13.77 -0.09,-0.85 -0.1,-1.71 -0.04,-2.57 0,-9.43 7.17,-15.92 18.2,-15.92 8.97,0 16.4,5.93 16.4,12.63l0 6.66 -0 0zm0.67 -33.7l0 0 0 6.83c-5.45,-4.78 -12.68,-7.23 -20.03,-6.79 -17.39,0.15 -31.35,13.88 -31.2,30.66 0.16,16.78 14.39,30.26 31.78,30.11 7.16,0.31 14.13,-2.28 19.22,-7.14l0 5.84c0,7.92 -7.08,13.71 -16.4,13.71 -7.12,0.49 -14.13,-1.88 -19.36,-6.58l-10.9 10.12c8.17,7.73 19.26,11.89 30.7,11.5 19.1,0 32.18,-12.37 32.18,-28.85l0 -59.43 -16 0 0 0z"/>
    <path class="fil2" d="M287.47 44.26l16.04 0 0 5.11 0.22 0c5.26,-4.63 12.21,-7.06 19.32,-6.75 17.46,0.64 31.09,14.82 30.43,31.66 -0.62,15.97 -13.89,28.77 -30.43,29.37 -6.79,0.15 -13.42,-2 -18.74,-6.1l0 28.89 -16.71 0 -0.14 -82.18 -0 0zm32.98 12.63l0 0c-8.97,0 -16.27,6.01 -16.27,12.55l0 7.31c0,6.96 7.21,12.72 16.35,12.72 9.32,0.46 17.27,-6.45 17.75,-15.45 0.48,-8.99 -6.68,-16.66 -16.01,-17.13 -0.58,-0.03 -1.16,-0.03 -1.74,0l-0.09 0 0 0z"/>
    <path class="fil2" d="M385.58 67.45c10.98,-1.43 14.25,-2.95 14.25,-5.88 0,-3.81 -4.16,-6.1 -10.62,-6.1 -6.95,-0.55 -13.29,3.88 -14.92,10.43l-15.77 -3.16c2.24,-11.76 14.79,-20.15 30.25,-20.15 17.48,0 28.33,8.65 28.33,22.66l0 36.72 -15.01 0 0 -6.4 -0.22 0c-5.09,5.53 -12.56,8.47 -20.21,7.96 -13.23,0 -22.41,-6.97 -22.41,-17.3 0,-10.34 7.53,-16.27 26.35,-18.77l0 -0zm15.6 6.09l0 0 -0.22 0c-1.48,2.08 -4.48,3.29 -12.78,4.67 -9.81,1.77 -13.44,3.64 -13.44,7.01 0,3.37 2.91,5.02 9.23,5.02 9.64,0 17.08,-4.33 17.08,-9.82l0.14 -6.88 0 0z"/>
    <polygon class="fil2" points="447.34,98.72 419.69,44.26 438.11,44.26 456.26,81.98 456.53,81.98 474.46,44.26 492.97,44.26 451.55,126.44 433.13,126.44 "/>
   </g>
   <rect class="fil3" x="-0" y="-0" width="492.97" height="157.75"/>
  </g>
 </g>
</svg>
