<?xml version="1.0" encoding="UTF-8"?>
<!DOCTYPE svg PUBLIC "-//W3C//DTD SVG 1.1//EN" "http://www.w3.org/Graphics/SVG/1.1/DTD/svg11.dtd">
<!-- Creator: CorelDRAW 2018 (64-Bit) -->
<svg xmlns="http://www.w3.org/2000/svg" xml:space="preserve" width="4.33334in" height="1.38667in" version="1.1" style="shape-rendering:geometricPrecision; text-rendering:geometricPrecision; image-rendering:optimizeQuality; fill-rule:evenodd; clip-rule:evenodd"
viewBox="0 0 388 124.16"
 xmlns:xlink="http://www.w3.org/1999/xlink">
 <defs>
  <style type="text/css">
   <![CDATA[
    .fil1 {fill:none}
    .fil0 {fill:#00ACE7;fill-rule:nonzero}
   ]]>
  </style>
 </defs>
 <g id="Layer_x0020_1">
  <metadata id="CorelCorpID_0Corel-Layer"/>
  <g id="_1669995871744">
   <g>
    <path class="fil0" d="M65.53 96.34c10.59,-6.12 17.21,-16.59 17.21,-27.97 0,-25.37 -25.61,-34.44 -25.61,-34.44 -4.71,-2.68 -10.52,-4.12 -16.95,-4.12 -0.48,0 -1.33,0.01 -1.81,0.01 6.54,-4.74 15.03,-7.66 23.62,-7.66 20.02,0 35.17,18.36 35.17,35.55 0,19.99 -14.65,35.51 -31.63,38.62zm-12.88 -0.07l0 0c-13.02,-2.46 -23.71,-11.99 -28.31,-23.27 4.56,4.33 11.06,7.29 19.35,7.29 13.23,0 25.82,-9.81 25.82,-24.33 0,-7.15 -2.62,-11.82 -2.62,-11.82 5.53,5.42 9.03,13.02 9.03,22.28 0,13.02 -10.09,25.17 -23.27,29.86zm-11.64 2.06l0 0c-15.54,0 -31.96,-14.53 -31.96,-32.61 0,-8.84 2.87,-17.65 10.13,-23.58 -1.29,2.6 -2.18,5.71 -2.54,9.45 -0.17,1.35 -0.27,2.75 -0.27,4.21 0,19.52 11.08,35.71 28.43,42.27 -1.25,0.16 -2.53,0.24 -3.8,0.24zm1.5 -63.22l0 0c11.3,0 20.04,10.74 20.04,20.31 0,12.95 -8.19,21.62 -19.62,21.62 -10.25,0 -19.42,-9.17 -19.42,-22.22 0,-10.77 8.3,-19.71 19,-19.71zm16.1 -17.11l0 0c-10.55,0 -25.54,4.39 -34.39,15.08 -14,5.92 -24.23,19.1 -24.23,33.54 0,22.38 19.73,35.75 43.51,35.75 3.91,0 7.65,-0.84 11.13,-1.71 2.56,0.4 5.22,0.61 7.97,0.61 22.44,0 42.21,-17.57 42.21,-40.54 0,-23.68 -19.5,-42.72 -46.2,-42.72z"/>
    <path class="fil0" d="M141.87 83.62c0,7.2 -4.73,11.27 -14.83,11.57l0 10.97c11.46,0 25.98,-6 25.98,-22.54l0 -53.73 -11.15 0 0 53.73z"/>
    <path class="fil0" d="M173.87 52c0.74,-6.68 3.68,-12.57 11.04,-12.57 7.37,0 10.31,5.9 11.05,12.57l-22.09 0zm33.76 1.02l0 0c0,-8.52 -4.84,-24.16 -22.72,-24.16 -16.93,0 -22.71,13.72 -22.71,27.92 0,14.22 5.89,27.92 25.34,27.92 5.27,0 11.98,-1.21 19.66,-6.5l-5.67 -8.52c-4.83,2.95 -9.48,4.47 -13.99,4.47 -8.62,0 -12.62,-5.68 -13.57,-11.57l23.45 0c6.94,0 10.21,-2.63 10.21,-9.55z"/>
    <path class="fil0" d="M237.93 28.86c-13.89,0 -21.01,11.07 -21.01,11.07l0 44.16 11.13 0 0 -40.61c0,0 3.47,-4.06 9.88,-4.06 7.05,0 10.93,5.58 10.93,10.56l0 34.12 11.16 0 0 -34.12c0,-10.26 -7.48,-21.12 -22.09,-21.12z"/>
    <polygon class="fil0" points="272.38,84.1 283.51,84.1 283.51,29.47 272.38,29.47 "/>
    <path class="fil0" d="M367.81 51l0.1 0c-3.8,-1.02 -8.72,-2.82 -8.72,-6.59 0,-2.74 2.94,-4.98 8.51,-4.98 5.57,0 11.88,2.44 14.3,3.55l3.58 -9.65c-3.7,-1.83 -11.17,-4.46 -17.88,-4.46 -9.67,0 -19.77,4.77 -19.77,15.55 0,9.93 9.05,14.92 17.98,17.05 4.85,1.01 10.93,2.95 10.93,6.81 0,4.06 -4.92,5.89 -9.77,5.89 -4.73,0 -11.25,-2.96 -16.19,-5.5l-4.31 10.06c4.73,2.34 11.68,5.77 20.5,5.98 10.19,0 20.92,-4.66 20.92,-16.43 0,-11.39 -11.78,-15.25 -20.19,-17.27z"/>
    <path class="fil0" d="M328.15 63.58c0,4.96 -3.88,10.52 -10.88,10.56 -6.97,-0.04 -10.86,-5.6 -10.86,-10.56l0 -34.11 -11.14 0 0 34.11c0,10.23 7.43,21.05 21.95,21.12l0.13 0c14.52,-0.07 21.94,-10.89 21.94,-21.12l0 -34.11 -11.14 0 0 34.11z"/>
   </g>
   <rect class="fil1" x="-0" y="0" width="388" height="124.16"/>
  </g>
 </g>
</svg>
