<?xml version="1.0" encoding="UTF-8"?>
<!DOCTYPE svg PUBLIC "-//W3C//DTD SVG 1.1//EN" "http://www.w3.org/Graphics/SVG/1.1/DTD/svg11.dtd">
<!-- Creator: CorelDRAW 2018 (64-Bit) -->
<svg xmlns="http://www.w3.org/2000/svg" xml:space="preserve" width="4.33333in" height="1.38667in" version="1.1" style="shape-rendering:geometricPrecision; text-rendering:geometricPrecision; image-rendering:optimizeQuality; fill-rule:evenodd; clip-rule:evenodd"
viewBox="0 0 767.62 245.64"
 xmlns:xlink="http://www.w3.org/1999/xlink">
 <defs>
  <style type="text/css">
   <![CDATA[
    .fil1 {fill:none}
    .fil0 {fill:#4C3494}
   ]]>
  </style>
 </defs>
 <g id="Layer_x0020_1">
  <metadata id="CorelCorpID_0Corel-Layer"/>
  <g id="_1670002150848">
   <path class="fil0" d="M263.17 6.78l96.38 0 0.06 38.64 -23.73 -0.04 56.25 133.37 55.32 -133.24 -24.4 0 0 -38.61 77.12 -0.04 -0.11 22.02 -92.81 216.77c-22.4,0.06 -36.97,-8.06 -44.78,-25.05l-76.44 -175.08 -22.86 -0.04 0.01 -38.68 0 -0zm-132.56 -6.78c67.02,0 121.35,54.71 121.35,122.18 0,67.47 -54.33,122.17 -121.35,122.17 -67.02,0 -121.35,-54.69 -121.35,-122.17 0,-67.47 54.33,-122.18 121.35,-122.18zm-0.37 39.98c42.27,0 76.53,37.21 76.53,83.11 0,45.91 -34.26,83.11 -76.53,83.11 -42.28,0 -76.54,-37.2 -76.54,-83.11 0,-45.9 34.26,-83.11 76.54,-83.11zm506.78 -39.98c67.02,0 121.35,54.71 121.35,122.18 0,67.47 -54.33,122.17 -121.35,122.17 -67.02,0 -121.35,-54.69 -121.35,-122.17 0,-67.47 54.33,-122.18 121.35,-122.18zm-0.37 39.98c42.27,0 76.53,37.21 76.53,83.11 0,45.91 -34.26,83.11 -76.53,83.11 -42.28,0 -76.54,-37.2 -76.54,-83.11 0,-45.9 34.26,-83.11 76.54,-83.11z"/>
   <rect class="fil1" x="-0" y="-0" width="767.62" height="245.64"/>
  </g>
 </g>
</svg>
