<?xml version="1.0" encoding="UTF-8"?>
<!DOCTYPE svg PUBLIC "-//W3C//DTD SVG 1.1//EN" "http://www.w3.org/Graphics/SVG/1.1/DTD/svg11.dtd">
<!-- Creator: CorelDRAW 2018 (64-Bit) -->
<svg xmlns="http://www.w3.org/2000/svg" xml:space="preserve" width="4.33333in" height="1.38666in" version="1.1" style="shape-rendering:geometricPrecision; text-rendering:geometricPrecision; image-rendering:optimizeQuality; fill-rule:evenodd; clip-rule:evenodd"
viewBox="0 0 814.03 260.49"
 xmlns:xlink="http://www.w3.org/1999/xlink">
 <defs>
  <style type="text/css">
   <![CDATA[
    .fil2 {fill:none}
    .fil0 {fill:#1862A0}
    .fil1 {fill:#1862A0;fill-rule:nonzero}
   ]]>
  </style>
 </defs>
 <g id="Layer_x0020_1">
  <metadata id="CorelCorpID_0Corel-Layer"/>
  <g id="_1670272195280">
   <g>
    <path class="fil0" d="M28.49 45.33l126.48 0c15.67,0 28.49,11.7 28.49,26.01l0 117.81c0,14.31 -12.82,26.01 -28.49,26.01l-126.48 0c-15.67,0 -28.49,-11.7 -28.49,-26.01l0 -117.81c0,-14.31 12.82,-26.01 28.49,-26.01zm3.06 12.08l22.44 0c6.15,2.59 11.13,6.64 14.56,11.28 4.11,5.56 5.9,11.78 4.65,16.96 -0.04,0.15 -0.11,0.4 -0.21,0.74 -3.1,10.14 -13.66,19.46 -24.39,28.95 -3.1,2.74 -6.22,5.49 -9.29,8.38l-6.34 5.95 6.42 5.87 0.01 0.01 0.02 -0.02c3.05,2.86 6.13,5.58 9.2,8.29 10.74,9.48 21.3,18.81 24.39,28.95 0.1,0.34 0.17,0.59 0.21,0.74 1.26,5.18 -0.54,11.39 -4.65,16.96 -4.1,5.54 -10.41,10.25 -18.3,12.62l-18.69 0c-6.25,0 -11.37,-5.13 -11.37,-11.41l0 -122.84c0,-6.28 5.11,-11.41 11.37,-11.41zm50.8 0l22.63 0c6.15,2.59 11.13,6.64 14.56,11.28 4.11,5.56 5.9,11.78 4.65,16.96 -0.04,0.15 -0.11,0.4 -0.21,0.74 -3.1,10.14 -13.66,19.46 -24.39,28.95 -3.1,2.74 -6.22,5.49 -9.29,8.38l-6.19 5.81 6.16 5.88 68.48 65.38c-1.9,1.44 -4.26,2.3 -6.82,2.3l-70.7 0c0.92,-1.04 1.78,-2.11 2.59,-3.2 6.85,-9.26 9.68,-20.23 7.31,-30 -0.15,-0.63 -0.3,-1.16 -0.43,-1.59 -4.46,-14.6 -16.8,-25.5 -29.36,-36.59 -0.8,-0.71 -1.6,-1.41 -2.4,-2.12 0.8,-0.71 1.6,-1.41 2.4,-2.12 12.56,-11.09 24.9,-21.99 29.36,-36.59 0.13,-0.43 0.27,-0.96 0.43,-1.59 2.37,-9.77 -0.47,-20.73 -7.31,-30 -0.46,-0.63 -0.95,-1.25 -1.45,-1.86zm51 0l18.57 0c6.25,0 11.37,5.14 11.37,11.41l0 112 -53.52 -51.1c0.85,-0.76 1.71,-1.51 2.56,-2.27 12.56,-11.09 24.9,-21.99 29.36,-36.59 0.13,-0.43 0.27,-0.96 0.43,-1.59 2.37,-9.77 -0.47,-20.73 -7.31,-30 -0.46,-0.63 -0.95,-1.25 -1.45,-1.86z"/>
    <path class="fil1" d="M484.35 91.5l23.75 0 0 34.05 29.66 -34.05 28.27 0 -32.44 36.27 34 42 -30.12 0 -29.37 -36.62 0 36.62 -23.75 0 0 -78.27zm-94.3 0l32.79 0 28.39 57.84 0 -57.84 20.97 0 0 78.27 -32.9 0 -28.27 -58.7 0 58.7 -20.97 0 0 -78.27zm-69.51 0l30.38 0 35.36 78.27 -28.39 0 -5.98 -17.05 -35.24 0 -5.85 17.05 -26.52 0 36.24 -78.27zm24.53 47.68l-10.71 -31.57 -11.83 31.57 22.54 0zm-134.11 -47.68l38.56 0c1.43,0.07 3.66,0.18 6.69,0.32 3.03,0.14 6.17,0.65 9.43,1.51 4.22,1.08 8.1,2.95 11.64,5.62 3.54,2.67 5.55,6.74 6.03,12.22 0,0.14 0,0.27 0,0.38 0,0.11 0.04,0.23 0.12,0.38 0,0.14 0,0.27 0,0.38 0,0.11 0,0.24 0,0.38 0,4.32 -1.71,8.02 -5.13,11.08 -3.42,3.06 -8,4.81 -13.73,5.24 0.08,0 0.14,0.02 0.18,0.05 0.04,0.04 0.1,0.05 0.18,0.05 5.09,1.3 9.75,3.39 13.97,6.27 4.22,2.88 6.33,7.28 6.33,13.19 0,7.64 -3.01,13.08 -9.02,16.32 -6.01,3.24 -14.9,4.86 -26.68,4.86l-38.56 0 0 -78.27zm24.47 62.92l13.13 0c3.58,0.07 6.21,-0.52 7.88,-1.79 1.67,-1.26 2.71,-2.65 3.11,-4.16 0.08,-0.29 0.14,-0.56 0.18,-0.81 0.04,-0.25 0.06,-0.52 0.06,-0.81 0,-0.43 -0.04,-0.88 -0.12,-1.35 -0.08,-0.47 -0.24,-0.95 -0.48,-1.46 -0.56,-1.37 -1.61,-2.65 -3.17,-3.84 -1.55,-1.19 -3.72,-1.78 -6.51,-1.78l-14.09 -0.11 0 16.11zm0 -32.33l12.18 0c3.74,0.07 6.41,-0.54 8,-1.84 1.59,-1.3 2.39,-3.21 2.39,-5.73 0,-2.09 -0.91,-3.89 -2.74,-5.4 -1.83,-1.51 -4.38,-2.27 -7.64,-2.27l-12.18 -0.11 0 15.35z"/>
    <path class="fil1" d="M789.35 91.5l24.68 0 0 78.27 -24.68 0 0 -78.27zm-89.47 0l38.88 0c0.4,0.07 0.78,0.11 1.14,0.11 0.36,0 0.74,0 1.14,0 8.19,0.15 15.69,1.55 22.51,4.22 6.82,2.67 10.23,8.07 10.23,16.21 0,6.34 -2.05,10.98 -6.14,13.89 -4.09,2.92 -8.99,4.81 -14.69,5.67 8.59,0.29 13.91,2.88 15.95,7.78 4.19,10.04 7.86,20.62 11.89,30.38l-26.48 0c-3.48,-7.06 -6.61,-16.98 -9.42,-24.54 -1.28,-3.46 -4.29,-5.19 -9.03,-5.19l-11.32 -0.11 0 29.84 -24.67 0 0 -78.27zm24.67 16.11l0 17.08 9.51 0c0.4,0.07 0.78,0.11 1.14,0.11 0.36,0 0.74,0 1.15,0 2.97,-0.14 5.7,-0.76 8.18,-1.84 2.49,-1.08 3.73,-3.32 3.73,-6.7 0,-2.96 -1.29,-5.12 -3.85,-6.49 -2.57,-1.37 -5.74,-2.05 -9.51,-2.05l-10.35 -0.11zm-110.87 -16.11l38.88 0c1.44,0.07 3.69,0.18 6.74,0.32 3.05,0.14 6.22,0.65 9.51,1.51 4.25,1.08 8.16,2.95 11.74,5.62 3.57,2.67 5.6,6.74 6.08,12.22 0,0.14 0,0.27 0,0.38 0,0.11 0.04,0.23 0.12,0.38 0,0.14 0,0.27 0,0.38 0,0.11 0,0.24 0,0.38 0,4.32 -1.73,8.02 -5.17,11.08 -3.45,3.06 -8.07,4.81 -13.85,5.24 0.08,0 0.14,0.02 0.18,0.05 0.04,0.04 0.1,0.05 0.18,0.05 5.14,1.3 9.83,3.39 14.09,6.27 4.25,2.88 6.38,7.28 6.38,13.19 0,7.64 -3.03,13.08 -9.09,16.32 -6.06,3.24 -15.03,4.86 -26.9,4.86l-38.88 0 0 -78.27zm24.68 62.92l13.25 0c3.61,0.07 6.26,-0.52 7.94,-1.79 1.69,-1.26 2.73,-2.65 3.13,-4.16 0.08,-0.29 0.14,-0.56 0.18,-0.81 0.04,-0.25 0.06,-0.52 0.06,-0.81 0,-0.43 -0.04,-0.88 -0.12,-1.35 -0.08,-0.47 -0.24,-0.95 -0.48,-1.46 -0.56,-1.37 -1.62,-2.65 -3.19,-3.84 -1.57,-1.19 -3.75,-1.78 -6.56,-1.78l-14.21 -0.11 0 16.11zm0 -32.33l12.28 0c3.77,0.07 6.46,-0.54 8.07,-1.84 1.61,-1.3 2.41,-3.21 2.41,-5.73 0,-2.09 -0.92,-3.89 -2.77,-5.4 -1.85,-1.51 -4.42,-2.27 -7.71,-2.27l-12.28 -0.11 0 15.35z"/>
   </g>
   <rect class="fil2" x="-0" y="-0" width="814.03" height="260.49"/>
  </g>
 </g>
</svg>
