<?xml version="1.0" encoding="UTF-8"?>
<!DOCTYPE svg PUBLIC "-//W3C//DTD SVG 1.1//EN" "http://www.w3.org/Graphics/SVG/1.1/DTD/svg11.dtd">
<!-- Creator: CorelDRAW 2018 (64-Bit) -->
<svg xmlns="http://www.w3.org/2000/svg" xml:space="preserve" width="4.33333in" height="1.39549in" version="1.1" style="shape-rendering:geometricPrecision; text-rendering:geometricPrecision; image-rendering:optimizeQuality; fill-rule:evenodd; clip-rule:evenodd"
viewBox="0 0 315.86 101.72"
 xmlns:xlink="http://www.w3.org/1999/xlink">
 <defs>
  <style type="text/css">
   <![CDATA[
    .fil0 {fill:none}
    .fil2 {fill:black;fill-rule:nonzero}
    .fil1 {fill:#FDAF27;fill-rule:nonzero}
   ]]>
  </style>
 </defs>
 <g id="Layer_x0020_1">
  <metadata id="CorelCorpID_0Corel-Layer"/>
  <g id="_1670002270848">
   <rect class="fil0" x="-0" y="0.32" width="315.86" height="101.08"/>
   <g>
    <path class="fil1" d="M54.1 0.21c-4.37,-0.9 -8.92,1.21 -11.23,5.19 -0.54,0.94 -0.94,1.96 -1.18,3 -1.02,-4.06 -4.21,-7.36 -8.27,-8.2 -4.37,-0.9 -8.93,1.21 -11.23,5.19 -0.54,0.94 -0.94,1.96 -1.18,3 -1.02,-4.06 -4.21,-7.36 -8.27,-8.2 -4.37,-0.9 -8.93,1.21 -11.23,5.19 -2.31,4 -1.94,9.25 0.9,12.85 2.84,3.6 7.66,5 11.87,3.42 3.35,-1.26 5.86,-4.24 6.73,-7.77 0.38,1.57 1.07,3.07 2.08,4.35 2.84,3.6 7.66,5 11.87,3.42 3.35,-1.26 5.86,-4.24 6.73,-7.77 0.38,1.57 1.07,3.07 2.08,4.35 2.84,3.6 7.66,5 11.87,3.42 4.19,-1.58 7.07,-5.85 7.07,-10.51 -0,-5.26 -3.67,-9.93 -8.61,-10.95z"/>
    <path class="fil1" d="M19.97 54.43c1.09,4.86 3.86,9.39 8.71,10.78 4.61,1.32 9.74,-0.82 12.11,-5.18 1.42,-2.62 1.24,-5.57 1.23,-8.47 -0.01,-1.95 -0.02,-3.9 -0.02,-5.85 0,-2.15 0,-4.29 0.01,-6.44 0.01,-2.75 -0.06,-5.42 1.25,-7.91 1.81,-3.45 5.41,-5.57 9.17,-5.42 3.8,0.16 7.26,2.65 8.77,6.3 1,2.42 0.83,5.05 0.84,7.63 0.01,2.13 0.01,4.26 0.01,6.38 0,4.59 0.28,9.39 -0.58,13.91 -1.98,10.47 -8.92,19.59 -18.33,23.79 -9.41,4.2 -20.56,3.07 -29.04,-2.9 -4.18,-2.94 -7.63,-7.02 -9.9,-11.73 -2.24,-4.66 -3.6,-10.48 -2.74,-15.69 0.64,-3.88 3.58,-7.06 7.28,-7.85 3.84,-0.82 7.86,1.03 9.87,4.55 0.73,1.27 1.04,2.66 1.36,4.09z"/>
    <path class="fil2" d="M315.86 53.71c0,14.23 -11.16,25.59 -25.24,25.59 -13.99,0 -24.96,-11.26 -24.96,-25.59 0,-14.32 10.97,-25.49 25.05,-25.49 14,0 25.15,11.26 25.15,25.49zm-37.25 0.1c0,7.71 5.1,13.24 12.1,13.24 6.9,0 12.1,-5.63 12.1,-13.24 0,-7.71 -5.2,-13.43 -12.1,-13.43 -7,0 -12.1,5.63 -12.1,13.43z"/>
    <path class="fil2" d="M113.93 63.33c2.37,1.42 4.66,2.88 7.5,2.71 2.73,-0.17 5.22,-1.66 6.77,-4 1.44,-2.18 1.41,-4.66 1.41,-7.18 0,-4.25 0,-33.37 0,-35.49 0,-1.47 -0.08,-2.92 0.46,-4.32 1.6,-4.15 6.8,-5.48 10.06,-2.58 1.75,1.55 2.24,3.69 2.24,5.97 0,4.58 0.13,36.3 -0.03,39.45 -0.29,5.68 -2.76,11.17 -6.64,15.14 -4.02,4.11 -9.53,6.37 -15.14,6.37 -5.38,-0 -11.07,-2.16 -14.6,-6.56 -1.42,-1.77 -2.24,-3.86 -1.68,-6.17 0.54,-2.23 2.26,-4.02 4.41,-4.54 1.95,-0.47 3.59,0.22 5.24,1.21z"/>
    <path class="fil2" d="M202.37 67.42l0.01 -0c-1.96,-1.24 -3.17,-3.45 -3.21,-5.84l0 -26.69c0,-3.68 -2.86,-6.67 -6.38,-6.67 -3.23,0 -5.89,2.51 -6.32,5.76 -3.22,-3.63 -8.1,-5.76 -13.95,-5.76 -13.14,0 -22.69,10.77 -22.69,25.58 0,14.82 9.55,25.59 22.69,25.59 0.06,0 0.12,-0 0.18,-0 0.06,0 0.12,0 0.18,0 6.3,0 11.77,-2.48 15.76,-6.7 2.04,3.31 5.33,5.74 9.26,6.48 0.38,0.07 0.77,0.11 1.14,0.11 0.02,0 0.05,-0 0.07,-0.01 0.03,0 0.06,0 0.09,0 3.38,0 6.12,-2.86 6.12,-6.39 0,-2.32 -1.18,-4.35 -2.95,-5.47zm-27.48 -0.18c-7.09,0 -12.1,-5.63 -12.1,-13.44 0,-7.81 5.1,-13.53 12.1,-13.53 7,0 11.82,5.53 11.82,13.53 0,8 -4.73,13.44 -11.82,13.44z"/>
    <path class="fil2" d="M258.7 34.94c0,-3.85 -2.65,-6.72 -6.24,-6.72 -3.31,0 -5.96,2.57 -6.24,6.12 -3.21,-3.85 -8.23,-6.12 -14.27,-6.12 -13.14,0 -22.69,10.77 -22.69,25.59 0,14.82 9.55,25.58 22.69,25.58 5.9,0 10.78,-2.13 13.99,-5.92l0 1.59c-0.04,7.97 -4.78,13.32 -11.82,13.32 -3.01,0 -5.72,-1 -7.84,-2.89 -0.79,-0.71 -1.48,-1.53 -2.07,-2.46 -1.95,-3.07 -5.91,-3.9 -8.85,-1.86 -2.93,2.04 -3.73,6.18 -1.78,9.24 1.24,1.94 2.71,3.69 4.39,5.19 4.46,4 10.04,6.12 16.15,6.12 14.08,0 24.34,-11.01 24.57,-26.25l0.01 -2.89c0,0 0,0 0,-0l0 -37.64 -0 0zm-24.39 32.31c-7.09,0 -12.1,-5.63 -12.1,-13.44 0,-7.8 5.1,-13.53 12.1,-13.53 7,0 11.82,5.53 11.82,13.53 0,8 -4.73,13.44 -11.82,13.44z"/>
   </g>
  </g>
 </g>
</svg>
