<?xml version="1.0" encoding="UTF-8"?>
<!DOCTYPE svg PUBLIC "-//W3C//DTD SVG 1.1//EN" "http://www.w3.org/Graphics/SVG/1.1/DTD/svg11.dtd">
<!-- Creator: CorelDRAW 2018 (64-Bit) -->
<svg xmlns="http://www.w3.org/2000/svg" xml:space="preserve" width="4.33333in" height="1.38667in" version="1.1" style="shape-rendering:geometricPrecision; text-rendering:geometricPrecision; image-rendering:optimizeQuality; fill-rule:evenodd; clip-rule:evenodd"
viewBox="0 0 315.18 100.86"
 xmlns:xlink="http://www.w3.org/1999/xlink">
 <defs>
  <style type="text/css">
   <![CDATA[
    .fil0 {fill:none}
    .fil1 {fill:#334A7A;fill-rule:nonzero}
    .fil2 {fill:url(#id0)}
   ]]>
  </style>
  <linearGradient id="id0" gradientUnits="userSpaceOnUse" x1="134.62" y1="74.73" x2="305.55" y2="-26.61">
   <stop offset="0" style="stop-opacity:1; stop-color:#FAA954"/>
   <stop offset="0.0705882" style="stop-opacity:1; stop-color:#FFCC29"/>
   <stop offset="0.160784" style="stop-opacity:1; stop-color:#FCEC38"/>
   <stop offset="0.321569" style="stop-opacity:1; stop-color:#FFCC29"/>
   <stop offset="0.458824" style="stop-opacity:1; stop-color:#FAA954"/>
   <stop offset="0.54902" style="stop-opacity:1; stop-color:#FFCC29"/>
   <stop offset="0.631373" style="stop-opacity:1; stop-color:#FFF212"/>
   <stop offset="0.690196" style="stop-opacity:1; stop-color:#FFCC29"/>
   <stop offset="0.74902" style="stop-opacity:1; stop-color:#FAA954"/>
   <stop offset="0.901961" style="stop-opacity:1; stop-color:#FFCC29"/>
   <stop offset="1" style="stop-opacity:1; stop-color:#FFF212"/>
  </linearGradient>
 </defs>
 <g id="Layer_x0020_1">
  <metadata id="CorelCorpID_0Corel-Layer"/>
  <g id="_1669991494240">
   <rect class="fil0" x="-0" y="0" width="315.18" height="100.86"/>
   <g>
    <g>
     <path class="fil1" d="M10.24 59.45l0.27 5.88c1.36,-2.04 3.17,-3.64 5.44,-4.76 2.27,-1.13 4.79,-1.71 7.53,-1.71 3.05,0 5.62,0.7 7.68,2.08 1.57,1.07 2.86,2.65 3.88,4.75 0.63,-1.23 1.4,-2.26 2.31,-3.07 1.31,-1.17 2.94,-2.11 4.9,-2.82 1.97,-0.7 3.97,-1.05 6.03,-1.05 2.46,0 4.6,0.49 6.44,1.46 1.83,0.97 3.22,2.22 4.19,3.75 0.71,1.12 1.27,2.83 1.69,5.12 0.29,1.51 0.44,3.71 0.44,6.64l0 22.23 -10.78 0 0 -21.21c0,-2.75 -0.21,-4.72 -0.63,-5.89 -0.41,-1.18 -1.14,-2.09 -2.18,-2.74 -1.03,-0.65 -2.15,-0.97 -3.38,-0.97 -1.41,0 -2.77,0.45 -4.08,1.33 -1.3,0.9 -2.28,2.23 -2.9,4.02 -0.62,1.78 -0.94,3.51 -0.94,5.2l0 20.26 -10.77 0 0 -23.12c0,-2.59 -0.59,-4.54 -1.77,-5.79 -1.18,-1.27 -2.66,-1.91 -4.43,-1.91 -2.07,0 -3.92,0.93 -5.57,2.79 -1.65,1.87 -2.47,4.77 -2.47,8.71l0 19.32 -10.78 0 0 -28.99 -0.15 -6.39c-0.03,-1.12 -0.09,-2.17 -0.2,-3.14l10.24 0z"/>
     <path class="fil1" d="M92.89 97.97l-0.28 -5.69c-0.91,1.79 -2.58,3.32 -4.99,4.55 -2.42,1.22 -5.11,1.84 -8.09,1.84 -2.6,0 -4.98,-0.5 -7.17,-1.5 -2.19,-1.01 -3.89,-2.43 -5.08,-4.3 -1.19,-1.86 -1.78,-3.99 -1.78,-6.41 0,-4.35 2.13,-7.64 6.4,-9.86 3.26,-1.68 8.19,-2.52 14.77,-2.52 1.65,0 3.52,0.09 5.61,0.25 0.03,-0.46 0.04,-0.81 0.04,-1.05 0,-2.42 -0.76,-4.29 -2.27,-5.61 -1.51,-1.33 -3.84,-1.99 -6.97,-1.99 -2.27,0 -4.58,0.41 -6.9,1.25 -2.33,0.82 -4.29,1.84 -5.91,3.07l-0.28 -8.65c1.39,-0.66 3.48,-1.27 6.28,-1.83 2.8,-0.56 5.55,-0.84 8.27,-0.84 3.48,0 6.42,0.45 8.84,1.35 2.41,0.9 4.38,2.27 5.89,4.09 1.06,1.3 1.75,2.98 2.13,5.06 0.36,2.08 0.55,5.13 0.55,9.15l0 5.7 0.11 5.62 0.16 5.92 0.2 2.4 -9.49 0zm-0.55 -17.56c-1.34,-0.1 -2.23,-0.15 -2.7,-0.15 -2.62,0 -5.02,0.22 -7.2,0.66 -2.18,0.44 -3.77,1.18 -4.76,2.24 -0.99,1.06 -1.49,2.27 -1.49,3.64 0,1.46 0.56,2.65 1.69,3.61 1.12,0.95 2.68,1.42 4.66,1.42 1.75,0 3.47,-0.49 5.12,-1.45 1.66,-0.96 2.85,-2.21 3.59,-3.74 0.74,-1.53 1.1,-3.61 1.1,-6.24z"/>
     <path class="fil1" d="M119.21 59.45l0.28 5.88c2.94,-4.34 7.4,-6.5 13.37,-6.5 2.25,0 4.27,0.31 6.05,0.92 1.79,0.6 3.26,1.43 4.41,2.49 1.15,1.06 2.01,2.23 2.58,3.49 0.58,1.27 1,3.05 1.26,5.37 0.11,1.1 0.17,3.99 0.2,8.69l0 18.18 -10.7 0 0 -19.32c0,-4.19 -0.39,-7 -1.18,-8.47 -1.2,-2.18 -3.2,-3.28 -5.99,-3.28 -1.75,0 -3.4,0.46 -4.94,1.38 -1.55,0.92 -2.68,2.24 -3.37,3.95 -0.71,1.69 -1.06,4.19 -1.06,7.48l0 18.26 -10.78 0 0 -30.92c0,-2.65 -0.12,-5.18 -0.35,-7.6l10.22 0z"/>
     <path class="fil1" d="M182.32 65l0 -23.1 10.58 0 0 56.08 -10.2 0 0 -5.62c-1.39,1.89 -3.21,3.39 -5.49,4.49 -2.27,1.1 -4.79,1.65 -7.53,1.65 -2.28,0 -4.31,-0.34 -6.09,-1.01 -1.79,-0.66 -3.26,-1.46 -4.4,-2.38 -1.12,-0.93 -2.19,-2.12 -3.17,-3.56 -0.98,-1.45 -1.78,-3.35 -2.41,-5.7 -0.63,-2.36 -0.94,-4.87 -0.94,-7.58 0,-6.01 1.49,-10.77 4.44,-14.26 2.97,-3.49 7.02,-5.23 12.18,-5.23 2.82,0 5.25,0.5 7.29,1.5 2.03,1 3.95,2.58 5.73,4.74zm-9.65 1.98c-2.49,0 -4.59,0.96 -6.31,2.9 -1.73,1.93 -2.58,4.9 -2.58,8.89 0,4.14 0.92,7.18 2.76,9.11 1.85,1.93 3.97,2.9 6.37,2.9 2.54,0 4.72,-1 6.56,-2.98 1.82,-1.98 2.74,-4.93 2.74,-8.85 0,-3.49 -0.84,-6.36 -2.52,-8.6 -1.67,-2.26 -4.01,-3.38 -7.01,-3.38z"/>
     <polygon class="fil1" points="200.38,97.97 200.38,59.45 211.15,59.45 211.15,97.97 "/>
     <path class="fil1" d="M218.6 59.45l9.83 0 0.2 9.78c0.7,-3.12 2.15,-5.57 4.35,-7.39 2.19,-1.81 4.68,-2.72 7.48,-2.72 1.02,0 2.01,0.09 2.94,0.25l0 9.42c-0.82,-0.41 -1.91,-0.62 -3.29,-0.62 -1.94,0 -3.56,0.36 -4.88,1.06 -1.31,0.71 -2.39,1.66 -3.24,2.83 -0.83,1.18 -1.42,2.52 -1.75,4 -0.35,1.48 -0.51,3.5 -0.51,6.07l0 15.84 -10.78 0 0 -26.83 -0.28 -10.63 -0.07 -1.06z"/>
     <polygon class="fil1" points="246.73,97.97 246.73,59.45 257.5,59.45 257.5,97.97 "/>
    </g>
    <path class="fil2" d="M126.83 35.58c2.47,4.58 7.51,11.25 15.69,10.27 4.98,-0.6 8.94,-3.91 13.14,-6.67l14.93 -9.81c4.01,-2.64 10.27,-4.75 16.58,-4.09 3.78,0.39 7.85,1.93 10.72,4.54 3.39,3.08 4.82,8.13 7.9,11.6 6.56,7.39 13.17,1.48 19.45,-2.51l17.09 -10.88c0,0 15.17,-10.71 26.44,1.08 3.09,3.93 7.88,12.31 12.17,13.89 2.78,1.02 6.84,-0.26 11.42,-3.31l22.8 -15.26 -6.84 -10.19c-6.63,-9.88 -19.04,0.12 -25.8,4.68 0,0 -8.45,5.01 -15.15,0.88 -6.16,-3.79 -6.33,-11.67 -13.84,-15.64 -4.25,-2.24 -10.38,-3.18 -17.26,0.61l-25.74 15.49c0,0 -8.48,5.82 -14.61,0.95 -6.69,-5.32 -7.22,-13.69 -16.95,-16.34 -4.62,-1.26 -10.63,-0.35 -17.57,3.25l-28.88 18.54 0 0c0,0 -7.34,5.37 -5.71,8.94z"/>
   </g>
  </g>
 </g>
</svg>
